<svg enable-background="new 0 0 16 16" viewBox="0 0 16 16" xmlns="http://www.w3.org/2000/svg"><g id="line" style="display:none;fill:none;stroke:#000;stroke-linecap:round;stroke-linejoin:round;stroke-miterlimit:10"><path d="m4.5 12-4-4 4-4" display="inline"></path><path d="m10.5 8h-10" display="inline"></path><path d="m15.5 8h-3" display="inline"></path></g><g id="line_expanded" display="none"><path d="m10.5 7.5h-8.8l3.1-3.1c.2-.2.2-.6.1-.8s-.5-.2-.7 0l-4 4c-.2.2-.2.6-.1.8l4 4c.1.1.2.1.4.1s.3 0 .4-.1c.2-.2.2-.5 0-.7l-3.2-3.2h8.8c.3 0 .5-.2.5-.5s-.2-.5-.5-.5z" display="inline"></path><g display="inline"><path d="m15.5 8.5h-3c-.3 0-.5-.2-.5-.5s.2-.5.5-.5h3c.3 0 .5.2.5.5s-.2.5-.5.5z"></path></g></g><g id="filled_line" display="none"><g display="inline"><path d="m1.6 9.1 2.9 2.9v-5.9z" fill="#fff"></path><g fill="#fff"><path d="m10.5 7.5h-5.5v-3.5c0-.2-.1-.4-.3-.5s-.4 0-.5.1l-4 4c-.2.2-.2.6-.1.8l4 4c.1.1.2.1.4.1h.2c.2-.1.3-.3.3-.5v-3.5h5.5c.3 0 .5-.2.5-.5s-.2-.5-.5-.5zm-6.5 3.3-2.8-2.8 2.8-2.8z"></path><path d="m15.5 7.5h-3c-.3 0-.5.2-.5.5s.2.5.5.5h3c.3 0 .5-.2.5-.5s-.2-.5-.5-.5z"></path></g></g></g><g id="flat"><g><path d="m15.5 7.5h-13.8l3.1-3.1c.2-.2.2-.6.1-.8s-.5-.2-.7 0l-4 4c-.2.2-.2.6-.1.8l4 4c.1.1.2.1.4.1s.3 0 .4-.1c.2-.2.2-.5 0-.7l-3.2-3.2h13.8c.3 0 .5-.2.5-.5s-.2-.5-.5-.5z" fill="#fff"></path></g></g></svg>